<svg xmlns="http://www.w3.org/2000/svg" version="1.1" xmlns:xlink="http://www.w3.org/1999/xlink" xmlns:svgjs="http://svgjs.dev/svgjs" width="128" height="128" viewBox="0 0 128 128"><g transform="matrix(0.8046875,0,0,0.8046875,12.251863636363638,12.251863636363638)"><svg viewBox="0 0 143 143" data-background-color="#000000" preserveAspectRatio="xMidYMid meet" height="128" width="128" xmlns="http://www.w3.org/2000/svg" xmlns:xlink="http://www.w3.org/1999/xlink"><g id="tight-bounds" transform="matrix(1,0,0,1,0.3444999999999965,0.3444999999999965)"><svg viewBox="0 0 142.31066447748242 142.31066447748242" height="142.31066447748242" width="142.31066447748242"><g><svg></svg></g><g><svg viewBox="0 0 142.31066447748242 142.31066447748242" height="142.31066447748242" width="142.31066447748242"><g><path d="M0 71.155c0-39.298 31.857-71.155 71.155-71.155 39.298 0 71.155 31.857 71.156 71.155 0 39.298-31.857 71.155-71.156 71.156-39.298 0-71.155-31.857-71.155-71.156zM71.155 134.886c35.197 0 63.731-28.533 63.731-63.731 0-35.197-28.533-63.731-63.731-63.73-35.197 0-63.731 28.533-63.73 63.73 0 35.197 28.533 63.731 63.73 63.731z" data-fill-palette-color="tertiary" fill="#89939e" stroke="transparent"></path><ellipse rx="68.30911894919156" ry="68.30911894919156" cx="71.15533223874121" cy="71.15533223874121" fill="#89939e" stroke="transparent" stroke-width="0" fill-opacity="1" data-fill-palette-color="tertiary"></ellipse></g><g transform="matrix(1,0,0,1,42.27400724962296,29.989108276746492)"><svg viewBox="0 0 57.762649978236496 82.33244792398943" height="82.33244792398943" width="57.762649978236496"><g><svg viewBox="0 0 57.762649978236496 82.33244792398943" height="82.33244792398943" width="57.762649978236496"><g><svg viewBox="0 0 57.762649978236496 82.33244792398943" height="82.33244792398943" width="57.762649978236496"><g id="textblocktransform"><svg viewBox="0 0 57.762649978236496 82.33244792398943" height="82.33244792398943" width="57.762649978236496" id="textblock"><g><svg viewBox="0 0 57.762649978236496 82.33244792398943" height="82.33244792398943" width="57.762649978236496"><g transform="matrix(1,0,0,1,0,0)"><svg width="57.762649978236496" viewBox="4.2 -34.85 24.45 34.85" height="82.33244792398943" data-palette-color="#000000"><path d="M10.65 0L4.2 0 4.2-34.85 10.65-34.85 10.65-20.3 22.15-20.3 22.15-34.85 28.65-34.85 28.65 0 22.15 0 22.15-14.8 10.65-14.8 10.65 0Z" opacity="1" transform="matrix(1,0,0,1,0,0)" fill="#000000" class="wordmark-text-0" data-fill-palette-color="quaternary" id="text-0"></path></svg></g></svg></g></svg></g></svg></g></svg></g></svg></g></svg></g><defs></defs></svg><rect width="142.31066447748242" height="142.31066447748242" fill="none" stroke="none" visibility="hidden"></rect></g></svg></g></svg>